<svg width="128" height="128" viewBox="0 0 128 128" xmlns="http://www.w3.org/2000/svg" role="img" aria-label="Space and Time logo">
  <defs>
    <linearGradient id="st-gradient" x1="0%" y1="0%" x2="100%" y2="100%">
      <stop offset="0%" stop-color="#ff4ddb"/>
      <stop offset="100%" stop-color="#a34dfc"/>
    </linearGradient>
    <radialGradient id="st-glow" cx="50%" cy="40%" r="60%">
      <stop offset="0%" stop-color="#1c0f2a" stop-opacity="0.9"/>
      <stop offset="100%" stop-color="#0e0716" stop-opacity="1"/>
    </radialGradient>
  </defs>
  <rect width="128" height="128" rx="18" fill="url(#st-glow)"/>
  <polygon points="64,18 100,38 100,88 64,110 28,88 28,38" fill="none" stroke="url(#st-gradient)" stroke-width="8" stroke-linejoin="round"/>
  <path d="M46 48a4 4 0 0 1 3.9-4l28.2-0.3c2.2 0 4 1.8 4 4v16c0 2.2-1.8 4-4 4H50a4 4 0 0 1-4-4V48z" fill="none" stroke="url(#st-gradient)" stroke-width="6" stroke-linejoin="round" stroke-linecap="round"/>
  <circle cx="92" cy="32" r="10" fill="url(#st-gradient)"/>
</svg>
